<?xml version="1.0" encoding="UTF-8"?>
<svg viewBox="0 0 144 20" version="1.1" xmlns="http://www.w3.org/2000/svg" xmlns:xlink="http://www.w3.org/1999/xlink">
    <defs>
        <path d="M56.044,37 L57.136,33.752 L64.5,33.752 L65.48,37 L73.012,37 L66.992,18.38 C66.8613333,17.988 66.7073333,17.7266667 66.53,17.596 C66.3526667,17.4653333 66.0306667,17.4 65.564,17.4 L65.564,17.4 L57.948,17.4 L50.976,37 L56.044,37 Z M63.352,29.832 L58.452,29.832 L60.692,23.224 C60.7293333,23.112 60.7666667,23.042 60.804,23.014 C60.8413333,22.986 60.9253333,22.972 61.056,22.972 C61.168,22.972 61.2426667,22.986 61.28,23.014 C61.3173333,23.042 61.3546667,23.112 61.392,23.224 L61.392,23.224 L63.352,29.832 Z M87.148,37 L87.148,17.4 L79.924,17.4 L79.924,37 L87.148,37 Z M103.272,37 L103.272,30.812 L105.064,30.812 L108.368,37 L115.844,37 L111.896,29.916 C112.269333,29.8226667 112.577333,29.706 112.82,29.566 C113.062667,29.426 113.277333,29.2626667 113.464,29.076 C114.005333,28.5346667 114.383333,27.8393333 114.598,26.99 C114.812667,26.1406667 114.92,25.1093333 114.92,23.896 C114.92,22.272 114.770667,21.0446667 114.472,20.214 C114.173333,19.3833333 113.837333,18.7813333 113.464,18.408 C113.034667,17.9786667 112.54,17.7033333 111.98,17.582 C111.42,17.4606667 110.692,17.4 109.796,17.4 L109.796,17.4 L96.02,17.4 L96.02,37 L103.272,37 Z M105.708,27.032 L103.272,27.032 L103.272,21.292 L105.708,21.292 C106.268,21.292 106.650667,21.32 106.856,21.376 C107.061333,21.432 107.229333,21.5253333 107.36,21.656 C107.528,21.824 107.654,22.104 107.738,22.496 C107.822,22.888 107.864,23.42 107.864,24.092 C107.864,25.4733333 107.696,26.332 107.36,26.668 C107.229333,26.78 107.056667,26.8686667 106.842,26.934 C106.627333,26.9993333 106.249333,27.032 105.708,27.032 L105.708,27.032 Z M138.044,37 C138.66,37 139.178,36.93 139.598,36.79 C140.018,36.65 140.368,36.4306667 140.648,36.132 C141.544,35.236 141.992,33.7893333 141.992,31.792 C141.992,29.944 141.637333,28.6653333 140.928,27.956 C140.704,27.732 140.428667,27.5546667 140.102,27.424 C139.775333,27.2933333 139.350667,27.1906667 138.828,27.116 L138.828,27.116 L138.828,26.92 C139.649333,26.808 140.284,26.528 140.732,26.08 C141.46,25.352 141.824,24.064 141.824,22.216 C141.824,21.32 141.721333,20.5313333 141.516,19.85 C141.310667,19.1686667 141.002667,18.632 140.592,18.24 C140.312,17.9413333 139.957333,17.7266667 139.528,17.596 C139.098667,17.4653333 138.529333,17.4 137.82,17.4 L137.82,17.4 L122.924,17.4 L122.924,37 L138.044,37 Z M133.256,25.24 L129.924,25.24 L129.924,21.208 L133.256,21.208 C133.573333,21.208 133.816,21.2313333 133.984,21.278 C134.152,21.3246667 134.292,21.404 134.404,21.516 C134.665333,21.7773333 134.796,22.3466667 134.796,23.224 C134.796,24.1013333 134.665333,24.68 134.404,24.96 C134.217333,25.1466667 133.834667,25.24 133.256,25.24 L133.256,25.24 Z M133.452,33.22 L129.924,33.22 L129.924,28.768 L133.396,28.768 C133.694667,28.768 133.923333,28.7913333 134.082,28.838 C134.240667,28.8846667 134.385333,28.964 134.516,29.076 C134.684,29.244 134.800667,29.4773333 134.866,29.776 C134.931333,30.0746667 134.964,30.476 134.964,30.98 C134.964,31.9506667 134.805333,32.5946667 134.488,32.912 C134.282667,33.1173333 133.937333,33.22 133.452,33.22 L133.452,33.22 Z M152.796,37 L153.888,33.752 L161.252,33.752 L162.232,37 L169.764,37 L163.744,18.38 C163.613333,17.988 163.459333,17.7266667 163.282,17.596 C163.104667,17.4653333 162.782667,17.4 162.316,17.4 L162.316,17.4 L154.7,17.4 L147.728,37 L152.796,37 Z M160.104,29.832 L155.204,29.832 L157.444,23.224 C157.481333,23.112 157.518667,23.042 157.556,23.014 C157.593333,22.986 157.677333,22.972 157.808,22.972 C157.92,22.972 157.994667,22.986 158.032,23.014 C158.069333,23.042 158.106667,23.112 158.144,23.224 L158.144,23.224 L160.104,29.832 Z M194.4,37 L194.4,26.248 L187.848,26.248 L187.848,32.856 L185.16,32.856 C184.730667,32.856 184.408667,32.8373333 184.194,32.8 C183.979333,32.7626667 183.797333,32.6693333 183.648,32.52 C183.536,32.408 183.438,32.2493333 183.354,32.044 C183.27,31.8386667 183.2,31.54 183.144,31.148 C183.088,30.756 183.041333,30.2426667 183.004,29.608 C182.966667,28.9733333 182.948,28.1706667 182.948,27.2 C182.948,26.2293333 182.966667,25.4266667 183.004,24.792 C183.041333,24.1573333 183.088,23.644 183.144,23.252 C183.2,22.86 183.27,22.5613333 183.354,22.356 C183.438,22.1506667 183.536,21.992 183.648,21.88 C183.797333,21.7306667 183.979333,21.6373333 184.194,21.6 C184.408667,21.5626667 184.730667,21.544 185.16,21.544 L185.16,21.544 L194.344,21.544 L194.344,17.4 L180.54,17.4 C179.812,17.4 179.219333,17.47 178.762,17.61 C178.304667,17.75 177.917333,17.9786667 177.6,18.296 C177.32,18.5573333 177.063333,18.912 176.83,19.36 C176.596667,19.808 176.396,20.3866667 176.228,21.096 C176.06,21.8053333 175.929333,22.6593333 175.836,23.658 C175.742667,24.6566667 175.696,25.8373333 175.696,27.2 C175.696,28.5626667 175.742667,29.7433333 175.836,30.742 C175.929333,31.7406667 176.06,32.5946667 176.228,33.304 C176.396,34.0133333 176.596667,34.5966667 176.83,35.054 C177.063333,35.5113333 177.310667,35.8706667 177.572,36.132 C177.889333,36.4493333 178.281333,36.6733333 178.748,36.804 C179.214667,36.9346667 179.84,37 180.624,37 L180.624,37 L194.4,37 Z" id="path-1"></path>
    </defs>
    <g id="Welcome" stroke="none" stroke-width="1" fill="none" fill-rule="evenodd">
        <g id="Mobile-Portrait" transform="translate(-121.000000, -5416.000000)" fill="#FFFFFF" fill-rule="nonzero">
            <g id="Group-8-Copy" transform="translate(70.000000, 5399.000000)">
                <g id="AIRBAG">
                    <use xlink:href="#path-1"></use>
                    <use xlink:href="#path-1"></use>
                </g>
            </g>
        </g>
    </g>
</svg>
