<svg xmlns="http://www.w3.org/2000/svg" width="48px" height="42px"><path fill="#999" fill-rule="nonzero" d="M276.86,1915.78 C279.5,1915.78 282.62,1915.3 285.38,1914.28 L284.96,1894.66 L272.78,1892.14 C272.72,1891.48 272.72,1890.82 272.72,1890.34 C272.72,1884.52 278.12,1880.32 285.08,1877.02 L284,1874.32 C270.74,1878.1 263.84,1889.5 263.84,1900.9 C263.84,1907.68 266.3,1911.82 267.74,1914.16 C270.38,1915.36 274.46,1915.78 276.86,1915.78 Z M251.3,1915.78 C253.94,1915.78 257.06,1915.3 259.82,1914.28 L259.4,1894.66 L247.22,1892.14 C247.16,1891.48 247.16,1890.82 247.16,1890.34 C247.16,1884.52 252.56,1880.32 259.52,1877.02 L258.44,1874.32 C245.18,1878.1 238.28,1889.5 238.28,1900.9 C238.28,1907.68 240.74,1911.82 242.18,1914.16 C244.82,1915.36 248.9,1915.78 251.3,1915.78 Z" transform="translate(-238 -1874)"/></svg>
