<?xml version="1.0" encoding="UTF-8"?>
<svg viewBox="0 0 467 17" version="1.1" xmlns="http://www.w3.org/2000/svg" xmlns:xlink="http://www.w3.org/1999/xlink">
    <g id="Welcome" stroke="none" stroke-width="1" fill="none" fill-rule="evenodd">
        <g id="Desktop" transform="translate(-276.000000, -360.000000)" fill="#FFFFFF" fill-rule="nonzero">
            <g id="Group" transform="translate(213.000000, 341.000000)">
                <path d="M68.969,35 L68.969,30.138 L70.377,30.138 L72.973,35 L78.847,35 L75.745,29.434 C76.0383333,29.3606667 76.2803333,29.269 76.471,29.159 C76.6616667,29.049 76.8303333,28.9206667 76.977,28.774 C77.4023333,28.3486667 77.6993333,27.8023333 77.868,27.135 C78.0366667,26.4676667 78.121,25.6573333 78.121,24.704 C78.121,23.428 78.0036667,22.4636667 77.769,21.811 C77.5343333,21.1583333 77.2703333,20.6853333 76.977,20.392 C76.6396667,20.0546667 76.251,19.8383333 75.811,19.743 C75.371,19.6476667 74.799,19.6 74.095,19.6 L74.095,19.6 L63.271,19.6 L63.271,35 L68.969,35 Z M70.883,27.168 L68.969,27.168 L68.969,22.658 L70.883,22.658 C71.323,22.658 71.6236667,22.68 71.785,22.724 C71.9463333,22.768 72.0783333,22.8413333 72.181,22.944 C72.313,23.076 72.412,23.296 72.478,23.604 C72.544,23.912 72.577,24.33 72.577,24.858 C72.577,25.9433333 72.445,26.618 72.181,26.882 C72.0783333,26.97 71.9426667,27.0396667 71.774,27.091 C71.6053333,27.1423333 71.3083333,27.168 70.883,27.168 L70.883,27.168 Z M91.987,35 L91.987,19.6 L86.311,19.6 L86.311,35 L91.987,35 Z M114.851,35 L114.851,26.552 L109.703,26.552 L109.703,31.744 L107.591,31.744 C107.253667,31.744 107.000667,31.7293333 106.832,31.7 C106.663333,31.6706667 106.520333,31.5973333 106.403,31.48 C106.315,31.392 106.238,31.2673333 106.172,31.106 C106.106,30.9446667 106.051,30.71 106.007,30.402 C105.963,30.094 105.926333,29.6906667 105.897,29.192 C105.867667,28.6933333 105.853,28.0626667 105.853,27.3 C105.853,26.5373333 105.867667,25.9066667 105.897,25.408 C105.926333,24.9093333 105.963,24.506 106.007,24.198 C106.051,23.89 106.106,23.6553333 106.172,23.494 C106.238,23.3326667 106.315,23.208 106.403,23.12 C106.520333,23.0026667 106.663333,22.9293333 106.832,22.9 C107.000667,22.8706667 107.253667,22.856 107.591,22.856 L107.591,22.856 L114.807,22.856 L114.807,19.6 L103.961,19.6 C103.389,19.6 102.923333,19.655 102.564,19.765 C102.204667,19.875 101.900333,20.0546667 101.651,20.304 C101.431,20.5093333 101.229333,20.788 101.046,21.14 C100.862667,21.492 100.705,21.9466667 100.573,22.504 C100.441,23.0613333 100.338333,23.7323333 100.265,24.517 C100.191667,25.3016667 100.155,26.2293333 100.155,27.3 C100.155,28.3706667 100.191667,29.2983333 100.265,30.083 C100.338333,30.8676667 100.441,31.5386667 100.573,32.096 C100.705,32.6533333 100.862667,33.1116667 101.046,33.471 C101.229333,33.8303333 101.423667,34.1126667 101.629,34.318 C101.878333,34.5673333 102.186333,34.7433333 102.553,34.846 C102.919667,34.9486667 103.411,35 104.027,35 L104.027,35 L114.851,35 Z M129.025,35 L129.025,19.6 L123.349,19.6 L123.349,35 L129.025,35 Z M148.655,35 C149.461667,35 150.121667,34.9303333 150.635,34.791 C151.148333,34.6516667 151.595667,34.3913333 151.977,34.01 C152.197,33.79 152.395,33.515 152.571,33.185 C152.747,32.855 152.897333,32.4333333 153.022,31.92 C153.146667,31.4066667 153.242,30.7723333 153.308,30.017 C153.374,29.2616667 153.407,28.356 153.407,27.3 C153.407,26.244 153.374,25.3383333 153.308,24.583 C153.242,23.8276667 153.150333,23.1933333 153.033,22.68 C152.915667,22.1666667 152.765333,21.7413333 152.582,21.404 C152.398667,21.0666667 152.197,20.788 151.977,20.568 C151.610333,20.1866667 151.166667,19.93 150.646,19.798 C150.125333,19.666 149.461667,19.6 148.655,19.6 L148.655,19.6 L137.853,19.6 L137.853,35 L148.655,35 Z M145.597,31.832 L143.551,31.832 L143.551,22.768 L145.597,22.768 C146.022333,22.768 146.348667,22.7936667 146.576,22.845 C146.803333,22.8963333 146.983,22.988 147.115,23.12 C147.217667,23.2373333 147.305667,23.384 147.379,23.56 C147.452333,23.736 147.511,23.9853333 147.555,24.308 C147.599,24.6306667 147.632,25.034 147.654,25.518 C147.676,26.002 147.687,26.596 147.687,27.3 L147.686083,27.6428333 C147.683028,28.1989444 147.672333,28.6786667 147.654,29.082 C147.632,29.566 147.599,29.9693333 147.555,30.292 C147.511,30.6146667 147.452333,30.8676667 147.379,31.051 C147.305667,31.2343333 147.217667,31.3773333 147.115,31.48 C146.983,31.612 146.803333,31.7036667 146.576,31.755 C146.348667,31.8063333 146.022333,31.832 145.597,31.832 L145.597,31.832 Z M177.861,35 L177.861,29.302 L184.263,29.302 L184.263,26.112 L177.861,26.112 L177.861,22.856 L184.373,22.856 L184.373,19.6 L172.163,19.6 L172.163,35 L177.861,35 Z M198.019,35 L198.019,30.138 L199.427,30.138 L202.023,35 L207.897,35 L204.795,29.434 C205.088333,29.3606667 205.330333,29.269 205.521,29.159 C205.711667,29.049 205.880333,28.9206667 206.027,28.774 C206.452333,28.3486667 206.749333,27.8023333 206.918,27.135 C207.086667,26.4676667 207.171,25.6573333 207.171,24.704 C207.171,23.428 207.053667,22.4636667 206.819,21.811 C206.584333,21.1583333 206.320333,20.6853333 206.027,20.392 C205.689667,20.0546667 205.301,19.8383333 204.861,19.743 C204.421,19.6476667 203.849,19.6 203.145,19.6 L203.145,19.6 L192.321,19.6 L192.321,35 L198.019,35 Z M199.933,27.168 L198.019,27.168 L198.019,22.658 L199.933,22.658 C200.373,22.658 200.673667,22.68 200.835,22.724 C200.996333,22.768 201.128333,22.8413333 201.231,22.944 C201.363,23.076 201.462,23.296 201.528,23.604 C201.594,23.912 201.627,24.33 201.627,24.858 C201.627,25.9433333 201.495,26.618 201.231,26.882 C201.128333,26.97 200.992667,27.0396667 200.824,27.091 C200.655333,27.1423333 200.358333,27.168 199.933,27.168 L199.933,27.168 Z M217.781,35 L218.639,32.448 L224.425,32.448 L225.195,35 L231.113,35 L226.383,20.37 C226.280333,20.062 226.159333,19.8566667 226.02,19.754 C225.880667,19.6513333 225.627667,19.6 225.261,19.6 L225.261,19.6 L219.277,19.6 L213.799,35 L217.781,35 Z M223.523,29.368 L219.673,29.368 L221.433,24.176 C221.462333,24.088 221.491667,24.033 221.521,24.011 C221.550333,23.989 221.616333,23.978 221.719,23.978 C221.807,23.978 221.865667,23.989 221.895,24.011 C221.924333,24.033 221.953667,24.088 221.983,24.176 L221.983,24.176 L223.523,29.368 Z M242.251,35 L242.251,25.166 C242.251,25.0193333 242.317,24.946 242.449,24.946 C242.566333,24.946 242.654333,25.012 242.713,25.144 L242.713,25.144 L246.101,35 L249.929,35 C250.105,35 250.248,34.9926667 250.358,34.978 C250.468,34.9633333 250.563333,34.9266667 250.644,34.868 C250.724667,34.8093333 250.790667,34.7286667 250.842,34.626 C250.893333,34.5233333 250.948333,34.3913333 251.007,34.23 L251.007,34.23 L254.131,25.144 C254.189667,25.012 254.277667,24.946 254.395,24.946 C254.527,24.946 254.593,25.012 254.593,25.144 L254.593,25.144 L254.593,35 L259.873,35 L259.873,19.6 L252.745,19.6 L249.555,28.95 C249.525667,29.0526667 249.496333,29.1186667 249.467,29.148 C249.437667,29.1773333 249.386333,29.192 249.313,29.192 C249.225,29.192 249.162667,29.1773333 249.126,29.148 C249.089333,29.1186667 249.056333,29.0526667 249.027,28.95 L249.027,28.95 L246.101,20.37 C245.983667,20.062 245.859,19.8566667 245.727,19.754 C245.595,19.6513333 245.353,19.6 245.001,19.6 L245.001,19.6 L238.357,19.6 L238.357,35 L242.251,35 Z M280.999,35 L280.999,31.744 L274.355,31.744 L274.355,28.752 L280.889,28.752 L280.889,25.606 L274.355,25.606 L274.355,22.856 L280.999,22.856 L280.999,19.6 L268.657,19.6 L268.657,35 L280.999,35 Z M312.559,35 L312.559,31.744 L306.927,31.744 C306.589667,31.744 306.340333,31.7293333 306.179,31.7 C306.017667,31.6706667 305.878333,31.5973333 305.761,31.48 C305.673,31.392 305.596,31.2673333 305.53,31.106 C305.464,30.9446667 305.405333,30.71 305.354,30.402 C305.302667,30.094 305.266,29.6906667 305.244,29.192 C305.222,28.6933333 305.211,28.0626667 305.211,27.3 C305.211,26.5373333 305.222,25.9066667 305.244,25.408 C305.266,24.9093333 305.302667,24.506 305.354,24.198 C305.405333,23.89 305.464,23.6553333 305.53,23.494 C305.596,23.3326667 305.673,23.208 305.761,23.12 C305.878333,23.0026667 306.017667,22.9293333 306.179,22.9 C306.340333,22.8706667 306.589667,22.856 306.927,22.856 L306.927,22.856 L312.559,22.856 L312.559,19.6 L303.209,19.6 C302.593,19.6 302.105333,19.655 301.746,19.765 C301.386667,19.875 301.082333,20.0546667 300.833,20.304 C300.613,20.5093333 300.411333,20.788 300.228,21.14 C300.044667,21.492 299.887,21.9466667 299.755,22.504 C299.623,23.0613333 299.520333,23.7323333 299.447,24.517 C299.373667,25.3016667 299.337,26.2293333 299.337,27.3 C299.337,28.3706667 299.373667,29.2983333 299.447,30.083 C299.520333,30.8676667 299.623,31.5386667 299.755,32.096 C299.887,32.6533333 300.044667,33.1116667 300.228,33.471 C300.411333,33.8303333 300.605667,34.1126667 300.811,34.318 C301.060333,34.5673333 301.368333,34.7433333 301.735,34.846 C302.101667,34.9486667 302.593,35 303.209,35 L303.209,35 L312.559,35 Z M331.925,35.044 C332.541,35.044 333.025,34.9926667 333.377,34.89 C333.729,34.7873333 334.029667,34.6113333 334.279,34.362 C334.499,34.142 334.700667,33.856 334.884,33.504 C335.067333,33.152 335.225,32.701 335.357,32.151 C335.489,31.601 335.595333,30.93 335.676,30.138 C335.756667,29.346 335.797,28.4 335.797,27.3 C335.797,26.2293333 335.760333,25.3016667 335.687,24.517 C335.613667,23.7323333 335.514667,23.0613333 335.39,22.504 C335.265333,21.9466667 335.115,21.492 334.939,21.14 C334.763,20.788 334.565,20.502 334.345,20.282 C334.095667,20.0326667 333.787667,19.8493333 333.421,19.732 C333.054333,19.6146667 332.555667,19.556 331.925,19.556 L331.925,19.556 L323.763,19.556 C323.147,19.556 322.659333,19.6146667 322.3,19.732 C321.940667,19.8493333 321.636333,20.0326667 321.387,20.282 C321.181667,20.4873333 320.987333,20.766 320.804,21.118 C320.620667,21.47 320.463,21.9246667 320.331,22.482 C320.199,23.0393333 320.092667,23.714 320.012,24.506 C319.931333,25.298 319.891,26.2293333 319.891,27.3 C319.891,28.3853333 319.927667,29.3203333 320.001,30.105 C320.074333,30.8896667 320.177,31.5606667 320.309,32.118 C320.441,32.6753333 320.598667,33.1336667 320.782,33.493 C320.965333,33.8523333 321.159667,34.1346667 321.365,34.34 C321.614333,34.5893333 321.922333,34.769 322.289,34.879 C322.655667,34.989 323.147,35.044 323.763,35.044 L323.763,35.044 L331.925,35.044 Z M328.361,31.942 L327.327,31.942 C326.989667,31.942 326.736667,31.9273333 326.568,31.898 C326.399333,31.8686667 326.256333,31.7953333 326.139,31.678 C326.051,31.59 325.974,31.4616667 325.908,31.293 C325.842,31.1243333 325.787,30.8786667 325.743,30.556 C325.699,30.2333333 325.662333,29.8116667 325.633,29.291 C325.603667,28.7703333 325.589,28.1066667 325.589,27.3 C325.589,26.4933333 325.603667,25.8296667 325.633,25.309 C325.662333,24.7883333 325.699,24.3666667 325.743,24.044 C325.787,23.7213333 325.842,23.4756667 325.908,23.307 C325.974,23.1383333 326.051,23.01 326.139,22.922 C326.241667,22.8193333 326.381,22.7496667 326.557,22.713 C326.733,22.6763333 326.989667,22.658 327.327,22.658 L327.327,22.658 L328.361,22.658 C328.698333,22.658 328.955,22.6763333 329.131,22.713 C329.307,22.7496667 329.446333,22.8193333 329.549,22.922 C329.637,23.01 329.714,23.1383333 329.78,23.307 C329.846,23.4756667 329.904667,23.7213333 329.956,24.044 C330.007333,24.3666667 330.044,24.7883333 330.066,25.309 C330.088,25.8296667 330.099,26.4933333 330.099,27.3 L330.098327,27.6369592 C330.095633,28.2933673 330.084857,28.8447143 330.066,29.291 C330.044,29.8116667 330.007333,30.2333333 329.956,30.556 C329.904667,30.8786667 329.846,31.1243333 329.78,31.293 C329.714,31.4616667 329.637,31.59 329.549,31.678 C329.446333,31.7806667 329.307,31.8503333 329.131,31.887 C328.955,31.9236667 328.698333,31.942 328.361,31.942 L328.361,31.942 Z M347.815,35 L347.815,25.166 C347.815,25.0193333 347.881,24.946 348.013,24.946 C348.130333,24.946 348.218333,25.012 348.277,25.144 L348.277,25.144 L351.665,35 L355.493,35 C355.669,35 355.812,34.9926667 355.922,34.978 C356.032,34.9633333 356.127333,34.9266667 356.208,34.868 C356.288667,34.8093333 356.354667,34.7286667 356.406,34.626 C356.457333,34.5233333 356.512333,34.3913333 356.571,34.23 L356.571,34.23 L359.695,25.144 C359.753667,25.012 359.841667,24.946 359.959,24.946 C360.091,24.946 360.157,25.012 360.157,25.144 L360.157,25.144 L360.157,35 L365.437,35 L365.437,19.6 L358.309,19.6 L355.119,28.95 C355.089667,29.0526667 355.060333,29.1186667 355.031,29.148 C355.001667,29.1773333 354.950333,29.192 354.877,29.192 C354.789,29.192 354.726667,29.1773333 354.69,29.148 C354.653333,29.1186667 354.620333,29.0526667 354.591,28.95 L354.591,28.95 L351.665,20.37 C351.547667,20.062 351.423,19.8566667 351.291,19.754 C351.159,19.6513333 350.917,19.6 350.565,19.6 L350.565,19.6 L343.921,19.6 L343.921,35 L347.815,35 Z M378.115,35 L378.115,25.166 C378.115,25.0193333 378.181,24.946 378.313,24.946 C378.430333,24.946 378.518333,25.012 378.577,25.144 L378.577,25.144 L381.965,35 L385.793,35 C385.969,35 386.112,34.9926667 386.222,34.978 C386.332,34.9633333 386.427333,34.9266667 386.508,34.868 C386.588667,34.8093333 386.654667,34.7286667 386.706,34.626 C386.757333,34.5233333 386.812333,34.3913333 386.871,34.23 L386.871,34.23 L389.995,25.144 C390.053667,25.012 390.141667,24.946 390.259,24.946 C390.391,24.946 390.457,25.012 390.457,25.144 L390.457,25.144 L390.457,35 L395.737,35 L395.737,19.6 L388.609,19.6 L385.419,28.95 C385.389667,29.0526667 385.360333,29.1186667 385.331,29.148 C385.301667,29.1773333 385.250333,29.192 385.177,29.192 C385.089,29.192 385.026667,29.1773333 384.99,29.148 C384.953333,29.1186667 384.920333,29.0526667 384.891,28.95 L384.891,28.95 L381.965,20.37 C381.847667,20.062 381.723,19.8566667 381.591,19.754 C381.459,19.6513333 381.217,19.6 380.865,19.6 L380.865,19.6 L374.221,19.6 L374.221,35 L378.115,35 Z M416.863,35 L416.863,31.744 L410.219,31.744 L410.219,28.752 L416.753,28.752 L416.753,25.606 L410.219,25.606 L410.219,22.856 L416.863,22.856 L416.863,19.6 L404.521,19.6 L404.521,35 L416.863,35 Z M429.233,35 L429.233,27.41 C429.233,27.278 429.244,27.1936667 429.266,27.157 C429.288,27.1203333 429.335667,27.102 429.409,27.102 C429.482333,27.102 429.548333,27.1166667 429.607,27.146 C429.665667,27.1753333 429.746333,27.2633333 429.849,27.41 L429.849,27.41 L434.689,34.626 C434.806333,34.7873333 434.934667,34.89 435.074,34.934 C435.213333,34.978 435.451667,35 435.789,35 L435.789,35 L440.387,35 L440.387,19.6 L436.339,19.6 L436.339,27.3 C436.339,27.4173333 436.324333,27.4943333 436.295,27.531 C436.265667,27.5676667 436.214333,27.586 436.141,27.586 C436.067667,27.586 436.001667,27.5713333 435.943,27.542 C435.884333,27.5126667 435.811,27.432 435.723,27.3 L435.723,27.3 L430.861,19.974 C430.743667,19.8126667 430.615333,19.71 430.476,19.666 C430.336667,19.622 430.105667,19.6 429.783,19.6 L429.783,19.6 L425.185,19.6 L425.185,35 L429.233,35 Z M457.993,35 L457.993,22.856 L462.283,22.856 L462.283,19.6 L448.005,19.6 L448.005,22.856 L452.317,22.856 L452.317,35 L457.993,35 Z M471.309,35 L472.167,32.448 L477.953,32.448 L478.723,35 L484.641,35 L479.911,20.37 C479.808333,20.062 479.687333,19.8566667 479.548,19.754 C479.408667,19.6513333 479.155667,19.6 478.789,19.6 L478.789,19.6 L472.805,19.6 L467.327,35 L471.309,35 Z M477.051,29.368 L473.201,29.368 L474.961,24.176 C474.990333,24.088 475.019667,24.033 475.049,24.011 C475.078333,23.989 475.144333,23.978 475.247,23.978 C475.335,23.978 475.393667,23.989 475.423,24.011 C475.452333,24.033 475.481667,24.088 475.511,24.176 L475.511,24.176 L477.051,29.368 Z M497.583,35 L497.583,30.138 L498.991,30.138 L501.587,35 L507.461,35 L504.359,29.434 C504.652333,29.3606667 504.894333,29.269 505.085,29.159 C505.275667,29.049 505.444333,28.9206667 505.591,28.774 C506.016333,28.3486667 506.313333,27.8023333 506.482,27.135 C506.650667,26.4676667 506.735,25.6573333 506.735,24.704 C506.735,23.428 506.617667,22.4636667 506.383,21.811 C506.148333,21.1583333 505.884333,20.6853333 505.591,20.392 C505.253667,20.0546667 504.865,19.8383333 504.425,19.743 C503.985,19.6476667 503.413,19.6 502.709,19.6 L502.709,19.6 L491.885,19.6 L491.885,35 L497.583,35 Z M499.497,27.168 L497.583,27.168 L497.583,22.658 L499.497,22.658 C499.937,22.658 500.237667,22.68 500.399,22.724 C500.560333,22.768 500.692333,22.8413333 500.795,22.944 C500.927,23.076 501.026,23.296 501.092,23.604 C501.158,23.912 501.191,24.33 501.191,24.858 C501.191,25.9433333 501.059,26.618 500.795,26.882 C500.692333,26.97 500.556667,27.0396667 500.388,27.091 C500.219333,27.1423333 499.922333,27.168 499.497,27.168 L499.497,27.168 Z M524.385,35 L524.385,30.006 L529.687,19.6 L525.441,19.6 L522.515,25.738 C522.441667,25.8553333 522.346333,25.914 522.229,25.914 C522.111667,25.914 522.016333,25.8553333 521.943,25.738 L521.943,25.738 L519.127,19.6 L513.121,19.6 L518.423,30.006 L518.423,35 L524.385,35 Z" id="RIGIDFRAMECOMMENTARY"></path>
            </g>
        </g>
    </g>
</svg>
