<svg width="92" height="56" xmlns="http://www.w3.org/2000/svg" xmlns:xlink="http://www.w3.org/1999/xlink"><defs><path id="a" d="M0 0h92v56H0z"/></defs><g fill="none" fill-rule="evenodd"><mask id="b" fill="#fff"><use xlink:href="#a"/></mask><path d="M55.041 18.78c-.12 0-.375.007-.496.307s-.21.6-.21.6L49.253 35.16H60.74l-4.38-15.475s-.09-.3-.21-.6c-.122-.3-.376-.306-.498-.306l-.61.002zM45.44.078h26.222c.476 0 2.582-.085 3.286 2.076l1.197 3.726L92 55.974H66.58l-2.432-8.87-18.9-.012L42.32 56H25.853l3.184-8.986H17.563c-.475 0-2.58.085-3.285-2.076l-1.197-3.726-2.014-6.182h15.65c.476 0 2.581-.085 3.286 2.076l1.197 3.727 3.988-11.4H11.964c-.476 0-2.581.085-3.286-2.076L7.48 23.63l-2.018-6.192h27.32c.474 0 2.58-.085 3.285 2.076l1.197 3.727.05.152L41.3 12.06H6.475c-.476 0-2.581.085-3.286-2.076L1.992 6.257 0 0l38.974.067c.476 0 2.581-.085 3.286 2.076l1.197 3.727L45.44.077z" fill="#FFF" mask="url(#b)"/></g></svg>