<?xml version="1.0" encoding="UTF-8"?>
<svg width="92px" height="56px" viewBox="0 0 92 56" version="1.1" xmlns="http://www.w3.org/2000/svg" xmlns:xlink="http://www.w3.org/1999/xlink">
    <!-- Generator: Sketch 61.2 (89653) - https://sketch.com -->
    <title>Group 3</title>
    <desc>Created with Sketch.</desc>
    <defs>
        <polygon id="path-1" points="0 0 92 0 92 56 0 56"></polygon>
    </defs>
    <g id="Welcome" stroke="none" stroke-width="1" fill="none" fill-rule="evenodd">
        <g id="Desktop" transform="translate(-79.000000, -447.000000)">
            <g id="Group-3" transform="translate(79.000000, 447.000000)">
                <mask id="mask-2" fill="white">
                    <use xlink:href="#path-1"></use>
                </mask>
                <g id="Clip-2"></g>
                <path d="M55.0414837,18.7805245 C54.9206069,18.7805245 54.6658397,18.787045 54.5449629,19.0869877 C54.4238359,19.3866796 54.3347424,19.6866222 54.3347424,19.6866222 L49.252912,35.1595013 L60.7402112,35.1595013 L56.3593661,19.6853683 C56.3593661,19.6853683 56.2700224,19.3856764 56.1491456,19.0857337 C56.0280185,18.7857911 55.7735016,18.7792706 55.6523745,18.7792706 L55.0414837,18.7805245 Z M45.4396623,0.0769919748 L71.6624176,0.0769919748 C72.1376661,0.0769919748 74.2436251,-0.00802522213 74.9481141,2.15301662 L76.1451196,5.87947836 L92,55.9744196 L66.5800867,55.9744196 L64.1480357,47.1047936 L45.248712,47.0920034 L42.3196396,56 L25.8526171,56 L29.036707,47.0142591 L17.5634225,47.0142591 C17.088174,47.0142591 14.9824653,47.0992763 14.2777261,44.9382345 L13.0807205,41.2117727 L11.0671084,35.0300946 L26.7170238,35.0300946 C27.1925226,35.0300946 29.297981,34.9450774 30.0027202,37.1061192 L31.1997258,40.832581 L35.1876588,29.4327529 L11.9635487,29.4327529 C11.48805,29.4327529 9.38259152,29.5177701 8.67785231,27.3567283 L7.4805965,23.6302666 L5.46348072,17.4380553 L32.7821356,17.4380553 C33.2573841,17.4380553 35.3630928,17.3530381 36.067832,19.51408 L37.2648376,23.2405417 L37.3146398,23.3927701 L41.300821,12.0596518 L6.47454123,12.0596518 C5.99904247,12.0596518 3.89358403,12.144669 3.18884482,9.98362711 L1.991589,6.25691459 L0,0 L38.9743807,0.0672112353 C39.4498795,0.0672112353 41.5553379,-0.0180567498 42.2600771,2.14323588 L43.457333,5.86969762 L45.4396623,0.0769919748 Z" id="Fill-1" fill="#FFFFFF" mask="url(#mask-2)"></path>
            </g>
        </g>
    </g>
</svg>